<svg width="33" height="45" viewBox="0 0 33 45" fill="none" xmlns="http://www.w3.org/2000/svg">
<g clip-path="url(#clip0_95_616)">
<path d="M5.98529 5.37234H2.42647C1.07843 5.37234 0 6.43617 0 7.76596V42.6596C0 43.9894 1.07843 45.0532 2.42647 45.0532H30.6275C31.9755 45.0532 33.0539 43.9894 33.0539 42.6596V7.71277C33.0539 6.38298 31.9755 5.31915 30.6275 5.31915H27.0686C27.0147 3.98936 25.9902 2.97872 24.6961 2.97872H22.3775C22.0539 1.2766 20.5441 0 18.7108 0H14.8284C12.9951 0 11.4853 1.2766 11.2157 2.97872H8.35784C7.06373 2.97872 6.03922 4.04255 5.98529 5.37234ZM26.9069 8.98936H28.6324V39.7872H4.31373V8.98936H6.09314C6.41667 10 7.27941 10.6915 8.35784 10.6915H24.6422C25.7206 10.6915 26.6373 10 26.9069 8.98936ZM31.2745 7.71277V42.6064C31.2745 42.9787 30.951 43.2979 30.5735 43.2979H2.42647C2.04902 43.2979 1.72549 42.9787 1.72549 42.6064V7.71277C1.72549 7.34043 2.04902 7.02128 2.42647 7.02128H5.98529V7.23404H3.45098C2.96569 7.23404 2.58824 7.60638 2.58824 8.08511V40.5851C2.58824 41.0638 2.96569 41.4362 3.45098 41.4362H29.549C30.0343 41.4362 30.4118 41.0638 30.4118 40.5851V8.1383C30.4118 7.65958 30.0343 7.28723 29.549 7.28723H27.0686V7.07447H30.6275C31.0049 7.07447 31.2745 7.34043 31.2745 7.71277ZM7.71078 5.47872C7.71078 5.05319 7.98039 4.68085 8.35784 4.68085H12.0245C12.5098 4.68085 12.8873 4.30851 12.8873 3.82979V3.61702C12.8873 2.55319 13.75 1.70213 14.8284 1.70213H18.7108C19.7892 1.70213 20.652 2.55319 20.652 3.61702V3.82979C20.652 4.30851 21.0294 4.68085 21.5147 4.68085H24.6422C25.0196 4.68085 25.2892 5.05319 25.2892 5.47872V6.17021V8.19149C25.2892 8.61702 25.0196 8.98936 24.6422 8.98936H8.35784C7.98039 8.98936 7.71078 8.61702 7.71078 8.19149V6.17021V5.47872Z" fill="#FF3232"/>
<path d="M16.338 6.86133C17.74 6.86133 18.8723 5.74431 18.8723 4.36133C18.8723 2.97835 17.74 1.86133 16.338 1.86133C14.9361 1.86133 13.8037 2.97835 13.8037 4.36133C13.8037 5.74431 14.9361 6.86133 16.338 6.86133ZM16.338 3.56346C16.7694 3.56346 17.1468 3.9358 17.1468 4.36133C17.1468 4.78686 16.7694 5.1592 16.338 5.1592C15.9067 5.1592 15.5292 4.78686 15.5292 4.36133C15.5292 3.9358 15.9067 3.56346 16.338 3.56346Z" fill="#1D1F24" fill-opacity="0.52"/>
<path d="M5.71582 15.3725C5.71582 15.8513 6.09327 16.2236 6.57857 16.2236H26.0443C26.5295 16.2236 26.907 15.8513 26.907 15.3725C26.907 14.8938 26.5295 14.5215 26.0443 14.5215H6.57857C6.09327 14.5215 5.71582 14.947 5.71582 15.3725Z" fill="#1D1F24" fill-opacity="0.52"/>
<path d="M18.2256 20.4258H6.57857C6.09327 20.4258 5.71582 20.7981 5.71582 21.2768C5.71582 21.7556 6.09327 22.1279 6.57857 22.1279H18.2795C18.7648 22.1279 19.1423 21.7556 19.1423 21.2768C19.0884 20.8513 18.7109 20.4258 18.2256 20.4258Z" fill="#1D1F24" fill-opacity="0.52"/>
<path d="M18.2256 26.915H6.57857C6.09327 26.915 5.71582 27.2874 5.71582 27.7661C5.71582 28.2448 6.09327 28.6172 6.57857 28.6172H18.2795C18.7648 28.6172 19.1423 28.2448 19.1423 27.7661C19.1423 27.2874 18.7109 26.915 18.2256 26.915Z" fill="#1D1F24" fill-opacity="0.52"/>
<path d="M18.2256 33.4043H6.57857C6.09327 33.4043 5.71582 33.7766 5.71582 34.2554C5.71582 34.7341 6.09327 35.1064 6.57857 35.1064H18.2795C18.7648 35.1064 19.1423 34.7341 19.1423 34.2554C19.0884 33.7766 18.7109 33.4043 18.2256 33.4043Z" fill="#1D1F24" fill-opacity="0.52"/>
<path d="M24.6961 18.5636L22.4853 20.7977L21.8921 19.9998C21.6225 19.6275 21.0833 19.5211 20.7059 19.8402C20.3284 20.1062 20.2206 20.6381 20.5441 21.0104L21.7304 22.6594C21.8921 22.8721 22.1078 22.9785 22.3774 22.9785H22.4314C22.647 22.9785 22.9167 22.8721 23.0784 22.7126L25.9902 19.7338C26.3137 19.4147 26.3137 18.8296 25.9902 18.5104C25.5588 18.1913 25.0196 18.1913 24.6961 18.5636Z" fill="#E40303"/>
<path d="M24.6961 25.3195L22.4853 27.5535L21.8921 26.7557C21.6225 26.3833 21.0833 26.2769 20.7059 26.5961C20.3284 26.862 20.2206 27.394 20.5441 27.7663L21.7304 29.4152C21.8921 29.628 22.1078 29.7344 22.3774 29.7344H22.4314C22.647 29.7344 22.9167 29.628 23.0784 29.4684L25.9902 26.4897C26.3137 26.1706 26.3137 25.5854 25.9902 25.2663C25.5588 24.9472 25.0196 24.9472 24.6961 25.3195Z" fill="#E40303"/>
<path d="M24.6961 32.0743L22.4853 34.3083L21.8921 33.5104C21.6225 33.1381 21.0833 33.0317 20.7059 33.3508C20.3284 33.6168 20.2206 34.1487 20.5441 34.5211L21.7304 36.17C21.8921 36.3828 22.1078 36.4891 22.3774 36.4891H22.4314C22.647 36.4891 22.9167 36.3828 23.0784 36.2232L25.9902 33.2445C26.3137 32.9253 26.3137 32.3402 25.9902 32.0211C25.5588 31.7019 25.0196 31.7551 24.6961 32.0743Z" fill="#E40303"/>
</g>
<defs>
<clipPath id="clip0_95_616">
<rect width="33" height="45" fill="white"/>
</clipPath>
</defs>
</svg>
